<svg id="Layer_1" data-name="Layer 1" xmlns="http://www.w3.org/2000/svg" viewBox="0 0 529.27 181.61"><defs><style>.cls-1{fill:#fefefe;}.cls-2{fill:#fdc116;}.cls-3{fill:#ee1e27;}.cls-4{fill:#5a0405;}.cls-12,.cls-5{fill:#fda30e;}.cls-6{fill:#0e50ee;}.cls-7{fill:#0a37b2;}.cls-8{fill:#95090c;}.cls-9{fill:#fd8706;}.cls-10{fill:#c1161d;}.cls-11{fill:#922528;}.cls-12{font-size:72.2px;font-family:Montserrat-Bold, Montserrat;font-weight:700;}.cls-13{letter-spacing:-0.01em;}.cls-14{letter-spacing:0em;}.cls-15{fill:none;stroke:#fda30e;stroke-miterlimit:10;stroke-width:10px;}</style></defs><title>Artboard 1</title><path class="cls-1" d="M37.46,127c.29.19.57.4.87.58Q49.47,134,60.62,140.39c1.9,1.09,3.81,2.16,5.72,3.24.23.16.46.34.71.48L94.61,160c.19.11.37.35.61.23s.11-.41.11-.62q0-15.88,0-31.78c0-.17,0-.33,0-.5a.76.76,0,0,0-.45-.74L73.53,114.33c-2.38-1.37-4.78-2.71-7.17-4.06a2.57,2.57,0,0,0-.76-.52l-15.35-8.87L37.72,93.72l-.26-.25V60.88c0-.88,0-.89-.77-.45L22.06,68.87c-4.28,2.47-8.56,5-12.86,7.4a1.37,1.37,0,0,0-.82,1.35q0,16.08,0,32.16c0,.21,0,.42.23.52s.57.4.87.58q9.52,5.5,19.06,11C31.5,123.58,34.48,125.27,37.46,127Zm-29-86.14a1.8,1.8,0,0,0-.08.86V73c0,.25,0,.5,0,.74s.13.4.41.24l.43-.25q10.35-6,20.7-12c2.49-1.44,5-2.92,7.43-4.38a2.55,2.55,0,0,0,.79-.35l27.17-15.7a3.49,3.49,0,0,0,.91-.62c.38.21.77.4,1.15.62L94.32,56.88c1,.58,1,.58,1-.58q0-15.72,0-31.46a1.43,1.43,0,0,0-.8-1.4c-2.24-1.26-4.46-2.55-6.68-3.83Q77.6,13.67,67.33,7.73a1.66,1.66,0,0,0-1.85-.07Q56.57,12.84,47.63,18c-3.36,2-6.71,3.93-10.07,5.89-.19.09-.39.15-.57.25L8.82,40.39C8.65,40.49,8.43,40.56,8.47,40.83Z"/><path class="cls-2" d="M37.56,23.88c3.36-2,6.71-3.94,10.07-5.89q8.92-5.17,17.85-10.33a1.66,1.66,0,0,1,1.85.07q10.26,6,20.54,11.88c2.22,1.28,4.44,2.57,6.68,3.83a1.43,1.43,0,0,1,.8,1.4q0,15.73,0,31.46c0,1.16,0,1.16-1,.58L67.37,41.32c-.38-.22-.77-.41-1.15-.62a6.82,6.82,0,0,0-.69-.51l-9.29-5.34c-4.47-2.58-9-5.15-13.4-7.77A34.69,34.69,0,0,1,37.56,23.88Z"/><path class="cls-3" d="M8.6,110.3c-.25-.1-.23-.31-.23-.52q0-16.08,0-32.16a1.37,1.37,0,0,1,.82-1.35c4.3-2.44,8.58-4.93,12.86-7.4l14.63-8.44c.76-.44.77-.43.77.45V93.47c-1.33.79-2.64,1.59-4,2.37L22,102.46c-3.78,2.18-7.56,4.34-11.32,6.54A8.64,8.64,0,0,0,8.6,110.3Z"/><path class="cls-4" d="M66.36,110.27c2.39,1.35,4.79,2.69,7.17,4.06l21.35,12.29a.76.76,0,0,1,.45.74c0,.17,0,.33,0,.5q0,15.88,0,31.78c0,.21.14.49-.11.62s-.42-.12-.61-.23L67.05,144.11c-.25-.14-.48-.32-.71-.48V110.39S66.36,110.31,66.36,110.27Z"/><path class="cls-5" d="M37.56,23.88a34.69,34.69,0,0,0,5.28,3.2c4.45,2.62,8.93,5.19,13.4,7.77l9.29,5.34a6.82,6.82,0,0,1,.69.51,3.49,3.49,0,0,1-.91.62L38.14,57a2.55,2.55,0,0,1-.79.35l-4.49-2.6-7.14-4.11L19,46.79l-6.86-4a24.33,24.33,0,0,0-3.69-2c0-.27.18-.34.35-.44L37,24.13C37.17,24,37.37,24,37.56,23.88Z"/><path class="cls-6" d="M126.35,144.47c0,.15,0,.29,0,.44V159c-.27.06-.43-.13-.61-.24-9.15-5.27-18.28,8.29-27.45,3.05a1.63,1.63,0,0,1-.94-1.69c0-6.61,0-13.22,0-19.84q0-5.94,0-11.88c0-.16,0-.33,0-.49a14.87,14.87,0,0,1,2.29,1.23l8,4.58,8.06,4.64c2.62,1.5,5.22,3,7.85,4.51A20.49,20.49,0,0,0,126.35,144.47Z"/><path class="cls-7" d="M126.86,145a20,20,0,0,1,2.73,1.58c2.63,1.49,5.23,3,7.84,4.52l8.07,4.63q4,2.31,8,4.59a14.81,14.81,0,0,0,2.29,1.23c0,.2,0,.41,0,.62,0,7.55,0-3.76,0,3.78,0,3.4,0,6.8,0,10.2-1.12-.61-2.25-1.21-3.36-1.84l-8.75-5-8.36-4.84q-3.81-2.21-7.62-4.39c-.3-.17-.51-.51-.92-.47,0-.27,0-.54,0-.81,0-8.24,0,2.37,0-5.88C126.83,150.24,126.85,147.61,126.86,145Z"/><path class="cls-8" d="M66.35,143.37v.26c-1.91-1.08-3.82-2.15-5.72-3.24Q49.47,134,38.33,127.55c-.3-.18-.58-.39-.87-.58,0-3.26,0-6.51,0-9.77,0-7.56,0-15.13,0-22.7,0-.28-.11-.6.23-.78l12.53,7.16,15.35,8.87a2.57,2.57,0,0,1,.76.52s0,.08,0,.12-.33-.06-.22.13a1.67,1.67,0,0,1,.09.85q0,15.61,0,31.23C66.23,142.85,66.13,143.14,66.35,143.37Z"/><path class="cls-9" d="M8.47,40.83a24.33,24.33,0,0,1,3.69,2l6.86,4,6.7,3.87,7.14,4.11,4.49,2.6c-2.47,1.46-4.94,2.94-7.43,4.38q-10.33,6-20.7,12L8.79,74c-.28.16-.39,0-.41-.24s0-.49,0-.74V41.69A1.8,1.8,0,0,1,8.47,40.83Z"/><path class="cls-10" d="M37.72,93.72c-.34.18-.23.5-.23.78,0,7.57,0,15.14,0,22.7,0,3.26,0,6.51,0,9.77-3-1.7-6-3.39-8.93-5.1q-9.54-5.48-19.06-11c-.3-.18-.58-.39-.87-.58a8.64,8.64,0,0,1,2.08-1.3c3.76-2.2,7.54-4.36,11.32-6.54l11.48-6.62c1.34-.78,2.65-1.58,4-2.37Z"/><path class="cls-11" d="M66.35,143.37c-.22-.23-.12-.52-.12-.77q0-15.61,0-31.23a1.67,1.67,0,0,0-.09-.85c-.11-.19.14-.09.22-.13Z"/><text class="cls-12" transform="translate(46.61 100.91)">uestionnai<tspan class="cls-13" x="399.99" y="0">r</tspan><tspan class="cls-14" x="430.46" y="0">e</tspan></text><line class="cls-15" x1="98.43" y1="114.22" x2="475.85" y2="114.22"/></svg>