<svg id="Layer_1" data-name="Layer 1" xmlns="http://www.w3.org/2000/svg" viewBox="0 0 496 721"><defs><style>.cls-1{fill:#fefefe;}.cls-2{fill:#fec216;}.cls-3{fill:#07246e;}.cls-4{fill:#fea40e;}.cls-5{fill:#690406;}.cls-6{fill:#0f55fe;}.cls-7{fill:#c2161d;}.cls-8{fill:#0b3cc2;}.cls-9{fill:#fe1f29;}.cls-10{fill:#e01c24;}.cls-11{fill:#fe8706;}.cls-12{fill:#4b0304;}.cls-13{fill:#a40a0e;}.cls-14{fill:#87070a;}.cls-15{fill:#0932a4;}.cls-16{fill:#0d4be0;}.cls-17{font-size:71.26px;font-family:MarcellusSC-Regular, Marcellus SC;}</style></defs><title>Artboard 1</title><path class="cls-1" d="M10.42,284.66a20.5,20.5,0,0,0-.26,2.33q0,64.77,0,129.53c0,.91-.46,2,.75,2.64.82.53,1.62,1.1,2.47,1.59q37.08,21.44,74.19,42.84,19.64,11.31,39.33,22.54c.9.59,1.79,1.21,2.72,1.75q36.13,20.87,72.29,41.7,20.39,11.74,40.79,23.43l.69.34a9.66,9.66,0,0,0,1.16.86q56.31,32.53,112.65,65c.6.34,1.18,1.17,2.2.51v-1.42q0-65.05,0-130.11a20.12,20.12,0,0,0-.2-2c-.47-1-1.48-1.22-2.3-1.69Q317.51,461.72,278.1,439q-17.6-10.12-35.22-20.17c-.48-.33-.94-.71-1.44-1q-39.41-22.75-78.82-45.5c-11.63-6.71-23.31-13.34-35-20l-.94-1a6.73,6.73,0,0,0,.1-.89q0-65.65,0-131.32c0-.53.28-1.22-.64-1.55-.78.42-1.66.86-2.51,1.34Q69,250.46,14.26,282.08C12.94,282.85,11.33,283.26,10.42,284.66Zm476-5.94c0-.59.1-1.18.1-1.78V147.09c0-.69-.08-1.38-.12-2.07-.4-1.19-1.6-1.36-2.49-1.88q-53.16-30.73-106.33-61.43c-2.36-1.36-4.74-2.69-7.55-4.28V198.16c0,4.66.06,9.31.09,14,0,1.29-.09,2.57-.09,3.86q0,65.19-.05,130.39c-.62.31-1.25.6-1.84.94l-89.36,51.57c-8.28,4.78-16.54,9.57-25,14.49.88.59,1.51,1.05,2.18,1.44q56,32.32,111.9,64.68a4.11,4.11,0,0,0,4.78-.11Q428.53,447,484.5,414.7c.71-.4,1.79-.49,1.9-1.63s.1-2.17.1-3.26V282.6c0-1.09-.06-2.17-.1-3.26ZM126.72,206.35a6.12,6.12,0,0,0,1.11-.4l115-66.42c.71.33,1.45.62,2.13,1l111.53,64.39c.82.47,1.54,1.27,2.8,1.09.05-.76.13-1.53.13-2.29q0-64.6.05-129.23a3.73,3.73,0,0,0-2.15-3.72Q301.47,38.66,245.75,6.39a4.84,4.84,0,0,0-5.62.05q-39,22.67-78.08,45.16C150.5,58.28,139,65,127.46,71.75a14.65,14.65,0,0,0-1.61.73Q69,105.3,12.09,138.17c-.65.37-1.53.53-1.73,1.46-.07.78-.18,1.57-.18,2.35q0,64.44,0,128.88c0,.81-.37,1.76.62,2.56.57-.31,1.18-.6,1.76-.94q43.28-25,86.54-50C108.34,217.17,117.52,211.74,126.72,206.35Z"/><path class="cls-2" d="M127.46,71.75C139,65,150.5,58.28,162.05,51.6q39-22.58,78.08-45.16a4.84,4.84,0,0,1,5.62-.05q55.71,32.3,111.53,64.39a3.73,3.73,0,0,1,2.15,3.72q-.09,64.62-.05,129.23c0,.76-.08,1.53-.13,2.29-1.26.18-2-.62-2.8-1.09L244.92,140.54c-.68-.39-1.42-.68-2.13-1-2-1.84-4.44-2.86-6.73-4.19C219,125.47,202,115.51,184.9,105.65c-16.22-9.36-32.54-18.58-48.71-28C133.19,75.85,129.6,74.84,127.46,71.75Z"/><path class="cls-3" d="M486.4,413.07c-.11,1.14-1.19,1.23-1.9,1.63q-56,32.35-111.91,64.68a4.11,4.11,0,0,1-4.78.11q-55.9-32.42-111.9-64.68c-.67-.39-1.3-.85-2.18-1.44,8.49-4.92,16.75-9.71,25-14.49l89.36-51.57c.59-.34,1.22-.63,1.84-.94l1.23.07a24.77,24.77,0,0,0,2.34,1.77q25.5,14.71,51,29.4c13.93,8,27.83,16.12,41.77,24.13C473,405.57,479.71,409.3,486.4,413.07Z"/><path class="cls-4" d="M127.46,71.75c2.14,3.09,5.73,4.1,8.73,5.86,16.17,9.46,32.49,18.68,48.71,28,17.07,9.86,34.1,19.82,51.16,29.69,2.29,1.33,4.76,2.35,6.73,4.19L127.83,206a6.12,6.12,0,0,1-1.11.4q-15.27-8.74-30.52-17.48-18.06-10.38-36.1-20.82-16.38-9.47-32.76-18.92c-5.63-3.23-11.09-6.75-17-9.5.2-.93,1.08-1.09,1.73-1.46Q69,105.31,125.85,72.48A14.65,14.65,0,0,1,127.46,71.75Z"/><path class="cls-5" d="M243.4,553.35l-.69-.34c0-.59.1-1.18.1-1.77q0-65.85,0-131.68l.09-.73Q260.49,428.91,278.1,439q39.42,22.72,78.8,45.49c.82.47,1.83.73,2.3,1.69q-15.09,8.74-30.17,17.49-17.14,9.91-34.3,19.82c-9.65,5.55-19.42,10.91-29,16.65C258.34,544.6,250.54,548.41,243.4,553.35Z"/><path class="cls-6" d="M370.1,212.12c0-4.65-.09-9.3-.09-14V77.43c2.81,1.59,5.19,2.92,7.55,4.28q53.18,30.71,106.33,61.43c.89.52,2.09.69,2.49,1.88q-15.76,9.09-31.52,18.17c-11.47,6.58-23,13.1-34.41,19.69-13.59,7.82-27.18,15.64-40.71,23.57-2.94,1.72-6.25,3-8.54,5.67Z"/><path class="cls-7" d="M126.71,351.29c.32.34.63.69.94,1-1.09.8-.73,2-.73,3q0,65.12,0,130.23c0,.18,0,.37,0,.56q-19.66-11.26-39.33-22.54Q50.47,442.2,13.39,420.75c-.85-.49-1.65-1.06-2.47-1.59.34-.93,1.19-1.26,2-1.7q12.21-7,24.4-14,24.48-14.14,48.94-28.33,19-11,37.93-21.92c.81-.46,1.57-.87,1.59-1.93Z"/><path class="cls-8" d="M370.1,212.12h1.1c11.07,7.2,22.79,13.32,34.15,20,13.66,8.08,27.52,15.83,41.29,23.73l39.76,22.84v.62q-21.67,12.5-43.37,25c-22,12.67-44,25.3-65.88,38.1-2,1.19-4.73,1.58-6,4l-1.23-.07q0-65.21.05-130.39C370,214.69,370.07,213.41,370.1,212.12Z"/><path class="cls-9" d="M126.71,351.29h-1c-6.29-4.08-12.87-7.66-19.36-11.4C93.54,332.51,80.77,325,68,317.6q-19-11-38-21.9c-6.5-3.73-13-7.36-19.57-11,.91-1.4,2.52-1.81,3.84-2.58Q69,250.45,123.66,218.87c.85-.48,1.73-.92,2.51-1.34.92.33.64,1,.64,1.55q0,65.67,0,131.32A6.73,6.73,0,0,1,126.71,351.29Z"/><path class="cls-10" d="M10.42,284.66c6.52,3.68,13.07,7.31,19.57,11q19,10.91,38,21.9c12.82,7.42,25.59,14.91,38.43,22.29,6.49,3.74,13.07,7.32,19.36,11.4,0,1.06-.78,1.47-1.59,1.93q-19,10.93-37.93,21.92Q61.74,389.3,37.28,403.47q-12.18,7-24.4,14c-.77.44-1.62.77-2,1.7-1.21-.6-.75-1.73-.75-2.64q0-64.77,0-129.53A20.5,20.5,0,0,1,10.42,284.66Z"/><path class="cls-11" d="M10.36,139.63c5.89,2.75,11.35,6.27,17,9.5q16.4,9.44,32.76,18.92,18,10.42,36.1,20.82,15.24,8.77,30.52,17.48c-9.2,5.39-18.38,10.82-27.61,16.16q-43.26,25-86.54,50c-.58.34-1.19.63-1.76.94-1-.8-.62-1.75-.62-2.56q0-64.44,0-128.88C10.18,141.2,10.29,140.41,10.36,139.63Z"/><path class="cls-12" d="M243.4,553.35c7.14-4.94,14.94-8.75,22.37-13.21,9.54-5.74,19.31-11.1,29-16.65q17.16-9.88,34.3-19.82,15.09-8.73,30.17-17.49a20.12,20.12,0,0,1,.2,2q0,65.06,0,130.11v1.42c-1,.66-1.6-.17-2.2-.51q-56.34-32.49-112.65-65A9.66,9.66,0,0,1,243.4,553.35Z"/><path class="cls-13" d="M126.93,485.57q0-65.11,0-130.23c0-1-.36-2.22.73-3,11.66,6.67,23.34,13.3,35,20q39.44,22.71,78.82,45.5c.5.29,1,.67,1.44,1l-.09.73c-2.6.26-4.39,2.12-6.5,3.33-11.48,6.55-22.91,13.19-34.36,19.81q-13.2,7.64-26.39,15.27-17.43,10-34.91,20C136.11,480.61,131.79,483.58,126.93,485.57Z"/><path class="cls-14" d="M126.93,485.57c4.86-2,9.18-5,13.7-7.55q17.49-10,34.91-20,13.22-7.61,26.39-15.27c11.45-6.62,22.88-13.26,34.36-19.81,2.11-1.21,3.9-3.07,6.5-3.33q0,65.83,0,131.68c0,.59-.06,1.18-.1,1.77q-20.39-11.71-40.79-23.43-36.15-20.82-72.29-41.7c-.93-.54-1.82-1.16-2.72-1.75C126.92,485.94,126.93,485.75,126.93,485.57Z"/><path class="cls-15" d="M371.19,346.44c1.23-2.44,3.93-2.83,6-4,21.91-12.8,43.91-25.43,65.88-38.1q21.68-12.51,43.37-25c0,1.09.1,2.17.1,3.26V409.81c0,1.09-.07,2.17-.1,3.26-6.69-3.77-13.41-7.5-20.07-11.33-13.94-8-27.84-16.1-41.77-24.13q-25.51-14.72-51-29.4A24.77,24.77,0,0,1,371.19,346.44Z"/><path class="cls-16" d="M486.4,278.72l-39.76-22.84c-13.77-7.9-27.63-15.65-41.29-23.73-11.36-6.71-23.08-12.83-34.15-20,2.29-2.72,5.6-4,8.54-5.67,13.53-7.93,27.12-15.75,40.71-23.57,11.45-6.59,22.94-13.11,34.41-19.69q15.76-9.06,31.52-18.17c0,.69.12,1.38.12,2.07V276.94C486.5,277.54,486.43,278.13,486.4,278.72Z"/><text class="cls-17" transform="translate(16.04 688.9)">Questionnaier</text></svg>